<svg width="24" height="24" viewBox="0 0 24 24" fill="none" xmlns="http://www.w3.org/2000/svg">
<path d="M21.054 18.5604L16.5192 14.0256C17.2261 12.8653 17.599 11.5323 17.5968 10.1736C17.5968 6.07321 14.0436 2.52121 9.94319 2.52121C8.96832 2.52105 8.00296 2.71295 7.10227 3.08595C6.20157 3.45894 5.38318 4.00572 4.69384 4.69506C4.0045 5.3844 3.45772 6.20279 3.08473 7.10349C2.71173 8.00418 2.51983 8.96954 2.51999 9.94441C2.51999 14.0436 6.07319 17.5968 10.1724 17.5968C11.4863 17.598 12.7768 17.2483 13.9104 16.584L18.4692 21.1452C18.6836 21.359 18.974 21.4791 19.2768 21.4791C19.5796 21.4791 19.87 21.359 20.0844 21.1452L21.216 20.0136C21.6612 19.5684 21.4992 19.0056 21.054 18.5604ZM4.80479 9.94441C4.80463 9.26952 4.93742 8.60122 5.19558 7.97766C5.45374 7.3541 5.83221 6.78751 6.30937 6.31024C6.78653 5.83297 7.35303 5.45437 7.97653 5.19606C8.60003 4.93776 9.2683 4.80481 9.94319 4.80481C12.7824 4.80481 15.312 7.33321 15.312 10.1736C15.3117 11.5366 14.7701 12.8437 13.8063 13.8075C12.8425 14.7713 11.5354 15.3129 10.1724 15.3132C7.33319 15.312 4.80479 12.7824 4.80479 9.94441V9.94441Z" fill="white"/>
</svg>
